<svg id="Capa_1" enable-background="new 0 0 512 512" height="512" viewBox="0 0 512 512" width="512" xmlns="http://www.w3.org/2000/svg"><g><path d="m512 256c0 128.606-94.832 235.062-218.384 253.256-2.288.337-2.114-5.725-6.573-5.514-15.684.743-41.721.71-56.469-.101-3.555-.195-10.251 5.901-12.191 5.615-123.551-18.194-218.383-124.65-218.383-253.256 0-141.385 114.615-256 256-256s256 114.615 256 256z" fill="#ffc14f"/><path d="m485.878 238.084c0 115.416-93.563 208.98-208.98 208.98s-208.98-93.564-208.98-208.98 93.563-208.98 208.98-208.98 208.98 93.563 208.98 208.98z" fill="#ffcd71"/><path d="m135.399 220.726 24.119 48.871c.874 1.771 2.563 2.998 4.518 3.282l53.933 7.837c4.921.715 6.886 6.763 3.325 10.234l-39.026 38.041c-1.414 1.378-2.059 3.364-1.726 5.311l9.213 53.715c.841 4.901-4.304 8.639-8.706 6.325l-48.239-25.361c-1.748-.919-3.836-.919-5.584 0l-48.239 25.361c-4.402 2.314-9.546-1.424-8.706-6.325l9.213-53.715c.334-1.946-.311-3.932-1.726-5.311l-39.026-38.041c-3.561-3.471-1.596-9.519 3.325-10.234l53.933-7.837c1.954-.284 3.644-1.511 4.518-3.282l24.119-48.871c2.202-4.459 8.561-4.459 10.762 0zm271.986 114.203-4.731 8.65c-.184.336-.459.611-.795.795l-8.65 4.731c-1.387.759-1.387 2.751 0 3.509l8.65 4.731c.336.184.612.459.795.795l4.731 8.65c.759 1.387 2.751 1.387 3.509 0l4.731-8.65c.184-.336.459-.612.795-.795l8.65-4.731c1.387-.759 1.387-2.751 0-3.509l-8.65-4.731c-.336-.184-.611-.459-.795-.795l-4.731-8.65c-.758-1.387-2.751-1.387-3.509 0z" fill="#fff5f5"/><path d="m90.894 143.208 8.267 15.115c.184.336.459.611.795.795l15.115 8.267c1.387.759 1.387 2.751 0 3.509l-15.115 8.267c-.336.184-.611.459-.795.795l-8.267 15.115c-.759 1.387-2.751 1.387-3.509 0l-8.267-15.115c-.184-.336-.459-.611-.795-.795l-15.115-8.267c-1.387-.759-1.387-2.751 0-3.509l15.115-8.267c.336-.184.611-.459.795-.795l8.267-15.115c.758-1.387 2.751-1.387 3.509 0zm287.925-8.451-30.159-22.078c-1.403-1.027-3.358.102-3.17 1.83l4.04 37.157c.094.867-.384 1.695-1.181 2.046l-34.199 15.079c-1.591.701-1.591 2.959 0 3.66l34.199 15.079c.798.352 1.276 1.18 1.181 2.046l-4.04 37.157c-.188 1.728 1.767 2.857 3.17 1.83l30.159-22.078c.703-.515 1.659-.515 2.363 0l30.159 22.078c1.403 1.027 3.358-.102 3.17-1.83l-4.04-37.157c-.094-.867.384-1.695 1.181-2.046l34.199-15.079c1.591-.701 1.591-2.959 0-3.66l-34.199-15.079c-.798-.352-1.276-1.18-1.181-2.046l4.04-37.157c.188-1.728-1.767-2.857-3.17-1.83l-30.159 22.078c-.704.515-1.66.515-2.363 0z" fill="#ffe7c0"/><path d="m293.616 449.306v59.949c-12.277 1.808-24.837 2.745-37.616 2.745s-25.339-.937-37.616-2.744v-59.949c0-13.788 7.419-25.843 18.482-32.392h38.269c11.063 6.549 18.481 18.603 18.481 32.391zm75.963-400.639c-5.492-28.24-30.157-48.667-58.926-48.667h-109.306c-28.769 0-53.434 20.427-58.926 48.667-7.739 39.785-11.921 82.244-11.921 126.333s4.182 86.548 11.921 126.333c5.493 28.24 30.158 48.667 58.926 48.667h39.653v54.5h30v-54.5h39.653c28.769 0 53.434-20.427 58.926-48.667 7.739-39.785 11.921-82.244 11.921-126.333s-4.182-86.548-11.921-126.333z" fill="#5f55af"/><path d="m310.653 350h-59.806c-28.769 0-53.434-20.427-58.926-48.667-7.739-39.785-11.921-82.244-11.921-126.333s4.182-86.548 11.921-126.333c5.492-28.24 30.157-48.667 58.926-48.667h59.806c28.769 0 53.434 20.427 58.926 48.667 7.739 39.785 11.921 82.244 11.921 126.333s-4.182 86.548-11.921 126.333c-5.492 28.24-30.157 48.667-58.926 48.667zm-12.857 87.812c0 23.083-18.713 41.796-41.796 41.796s-41.796-18.713-41.796-41.796 18.713-41.796 41.796-41.796 41.796 18.713 41.796 41.796z" fill="#8078bf"/><path d="m340 140c0 33.54-3.182 65.84-9.068 96.105-.023.119-.047.237-.07.355-4.002 19.754-32.492 19.754-36.495 0-.024-.118-.047-.237-.071-.355-5.887-30.265-9.068-62.565-9.068-96.105s3.181-65.84 9.068-96.105c.023-.119.047-.237.071-.355 4.002-19.754 32.492-19.754 36.495 0 .024.118.047.237.07.355 5.887 30.265 9.068 62.565 9.068 96.105z" fill="#958fca"/><path d="m276.898 437.812c0 11.542-9.356 20.898-20.898 20.898s-20.898-9.356-20.898-20.898 9.356-20.898 20.898-20.898 20.898 9.357 20.898 20.898z" fill="#51489a"/><path d="m236 70c0 5.523-4.477 10-10 10h-60c-5.523 0-10-4.477-10-10s4.477-10 10-10h60c5.523 0 10 4.477 10 10zm50 10h60c5.523 0 10-4.477 10-10s-4.477-10-10-10h-60c-5.523 0-10 4.477-10 10s4.477 10 10 10zm-60 20h-60c-5.523 0-10 4.477-10 10s4.477 10 10 10h60c5.523 0 10-4.477 10-10s-4.477-10-10-10zm120 0h-60c-5.523 0-10 4.477-10 10s4.477 10 10 10h60c5.523 0 10-4.477 10-10s-4.477-10-10-10zm-120 40h-60c-5.523 0-10 4.477-10 10s4.477 10 10 10h60c5.523 0 10-4.477 10-10s-4.477-10-10-10zm120 0h-60c-5.523 0-10 4.477-10 10s4.477 10 10 10h60c5.523 0 10-4.477 10-10s-4.477-10-10-10zm-120 40h-60c-5.523 0-10 4.477-10 10s4.477 10 10 10h60c5.523 0 10-4.477 10-10s-4.477-10-10-10zm120 0h-60c-5.523 0-10 4.477-10 10s4.477 10 10 10h60c5.523 0 10-4.477 10-10s-4.477-10-10-10zm-120 40h-60c-5.523 0-10 4.477-10 10s4.477 10 10 10h60c5.523 0 10-4.477 10-10s-4.477-10-10-10zm120 0h-60c-5.523 0-10 4.477-10 10s4.477 10 10 10h60c5.523 0 10-4.477 10-10s-4.477-10-10-10zm-120 40h-60c-5.523 0-10 4.477-10 10s4.477 10 10 10h60c5.523 0 10-4.477 10-10s-4.477-10-10-10zm120 0h-60c-5.523 0-10 4.477-10 10s4.477 10 10 10h60c5.523 0 10-4.477 10-10s-4.477-10-10-10z" fill="#453d83"/></g></svg>