<svg id="Capa_1" enable-background="new 0 0 511.998 511.998" height="512" viewBox="0 0 511.998 511.998" width="512" xmlns="http://www.w3.org/2000/svg"><g><g><g clip-rule="evenodd" fill-rule="evenodd"><path d="m256.004 445.125c27.056-37.236 43.819-88.921 43.819-146.053s-16.763-108.817-43.819-146.052c-24.604-33.86-60.641-59.373-103.829-59.373v410.851c40.481.001 77.157-22.665 103.829-59.373z" fill="#fcc062"/><path d="m359.823 504.499v-410.852c-21.66 0-42.229 6.491-60.759 18.15-16.099 10.13-30.66 24.16-43.059 41.223 27.056 37.236 43.819 88.921 43.819 146.052s-16.763 108.817-43.819 146.053c26.671 36.704 63.34 59.374 103.818 59.374z" fill="#fcc062"/><path d="m359.823 504.499v-14.915c-29.902-1.868-59.849-14.242-85.266-44.993 53.685-82.876 53.685-208.159 0-291.035 25.417-30.751 55.364-43.125 85.266-44.993v-14.916c-21.66 0-42.229 6.491-60.759 18.15-16.099 10.13-30.66 24.16-43.059 41.223 27.056 37.236 43.819 88.921 43.819 146.052s-16.763 108.817-43.819 146.053c26.671 36.704 63.34 59.374 103.818 59.374z" fill="#fbb03b"/><path d="m359.823 504.499c-40.478 0-77.147-22.67-103.819-59.373-26.673 36.707-63.348 59.373-103.829 59.373z" fill="#fcc062"/><path d="m359.823 504.499c-40.478 0-77.147-22.67-103.819-59.373-26.673 36.707-63.348 59.373-103.829 59.373zm-103.819-35.484c6.665 7.47 13.892 14.355 21.628 20.483h-43.257c7.737-6.127 14.964-13.013 21.629-20.483z" fill="#fbb03b"/><path d="m256.004 153.02c12.4-17.064 26.96-31.093 43.059-41.223-10.161-13.667-26.061-21.666-43.065-21.666-17.002 0-32.901 7.997-43.061 21.663 16.103 10.129 30.666 24.16 43.067 41.226z" fill="#ff4a51"/><path d="m256.004 153.02c12.4-17.064 26.96-31.093 43.059-41.223-10.161-13.667-26.061-21.666-43.065-21.666-17.002 0-32.901 7.997-43.061 21.663 16.103 10.129 30.666 24.16 43.067 41.226zm0-23.903c-6-6.733-12.489-13.03-19.455-18.743 11.935-6.963 26.972-6.961 38.906.004-6.965 5.712-13.452 12.007-19.451 18.739z" fill="#ff1d25"/><path d="m235.492 94.192-21.212-51.204c-19.531-10.969-37.863-13.01-49.474-4.608-7.852 5.682-12.631 16.139-12.631 31.841v23.426c21.66 0 42.231 6.489 60.763 18.147 5.749-7.733 13.53-13.863 22.554-17.602z" fill="#8cc63f"/><path d="m235.492 94.192-21.212-51.204c-19.531-10.969-37.863-13.01-49.474-4.608-7.852 5.682-12.631 16.139-12.631 31.841v23.426c21.66 0 42.231 6.489 60.763 18.147 5.749-7.733 13.53-13.863 22.554-17.602zm-25.523-1.332c-13.464-6.887-20.329-11.452-35.294-13.294 0-28.057-2.566-40.259 27.841-25.781l14.014 33.829c-2.291 1.613-4.482 3.365-6.561 5.246z" fill="#39b54a"/><path d="m276.507 94.192 21.212-51.204c-3.736-23.659-22.728-35.489-41.72-35.489s-37.984 11.829-41.72 35.489l21.212 51.204c13.013-5.39 28.003-5.389 41.016 0z" fill="#ffe477"/><path d="m276.507 94.192 21.212-51.204c-3.736-23.659-22.728-35.489-41.72-35.489s-37.984 11.829-41.72 35.489l21.212 51.204c13.013-5.39 28.003-5.389 41.016 0zm-8.762-18.041c-7.762-1.334-15.73-1.334-23.491 0l-14.329-34.589c3.391-11.862 13.327-19.062 26.075-19.062s22.684 7.2 26.075 19.062z" fill="#ffd442"/><path d="m359.823 93.647v-23.426c0-38.923-29.366-45.618-62.104-27.233l-21.212 51.205c9.025 3.739 16.808 9.872 22.557 17.604 18.53-11.659 39.099-18.15 60.759-18.15z" fill="#8cc63f"/><path d="m174.675 96.01c-7.254-1.539-14.762-2.362-22.5-2.362v410.851c7.65 0 15.164-.811 22.5-2.372z" fill="#fbb03b"/><path d="m276.507 94.192 21.212-51.204c19.531-10.969 37.863-13.01 49.474-4.608 7.852 5.682 12.631 16.139 12.631 31.841v23.426c-21.66 0-42.231 6.489-60.763 18.147-5.75-7.733-13.531-13.863-22.554-17.602zm25.522-1.332c13.464-6.887 27.829-11.452 42.794-13.294 0-28.057-4.934-40.259-35.341-25.781l-14.014 33.829c2.291 1.613 4.483 3.365 6.561 5.246z" fill="#39b54a"/></g><g><path d="m189.675 474.499h-15v-15h15zm0-30h-15v-15h15z" fill="#fff"/></g><g><path d="m337.323 198.646h-15v-45h15zm0-60h-15v-15h15z" fill="#fff"/></g><g><path d="m331.191 73.623h-15v-15h15zm-135.384 0h-15v-15h15zm67.692-27.56h-15v-15h15z" fill="#fff"/></g></g><g><path d="m352.323 496.72c-26.975-2.009-52.649-14.854-74.67-37.453l-10.743 10.469c11.014 11.303 22.896 20.424 35.406 27.263h-38.816v15h96.324 7.5v-59.999h-15v44.72z"/><path d="m300.679 102.065c-4.269-4.559-9.196-8.408-14.573-11.451l17.525-42.302c10.307-5.418 20.237-8.079 28.187-7.527l1.048-14.963c-9.143-.638-19.431 1.516-30.162 6.273-7.727-22.083-28.081-32.096-46.704-32.095-.001 0-.001 0-.003 0-18.623 0-38.975 10.01-46.702 32.093-19.271-8.556-36.75-8.571-48.886.211-7.178 5.194-15.734 15.989-15.734 37.917h15c0-8.608 1.653-20.066 9.528-25.765 8.47-6.13 22.995-4.646 39.171 3.873l17.518 42.286c-5.376 3.043-10.302 6.891-14.571 11.45-18.514-10.438-38.531-15.917-59.146-15.917h-7.5v59.999h15v-44.719c33.301 2.499 64.695 21.599 89.089 54.415 26.686 35.9 42.118 84.173 43.454 135.925l14.995-.387c-1.415-54.814-17.897-106.127-46.411-144.486-10.977-14.766-23.299-27.029-36.583-36.581 8.507-8.135 19.729-12.683 31.779-12.683 12.055 0 23.281 4.552 31.79 12.692-7.228 5.208-14.193 11.229-20.841 18.048l10.739 10.472c22.013-22.576 47.677-35.408 74.636-37.417v335.573h15v-350.852h-7.5c-20.612 0-40.586 5.432-59.143 15.918zm-60.928-17.187-17.699-42.723c4.121-19.996 20.677-27.156 33.948-27.155 13.27-.001 29.826 7.159 33.947 27.155l-17.699 42.723c-5.25-1.459-10.708-2.248-16.248-2.248-5.541.001-10.999.79-16.249 2.248z"/><path d="m260.802 451.251c28.514-38.359 44.996-89.672 46.411-144.486l-14.995-.387c-1.335 51.752-16.768 100.024-43.454 135.925-24.395 32.816-55.788 51.916-89.089 54.415v-335.572h-15v350.852h7.5 96.324v-15h-38.848c18.889-10.296 36.259-25.713 51.151-45.747z"/><path d="m352.323 70.221h15c0-22.605-9.054-33.44-16.65-38.549l-8.371 12.447c8.283 5.57 10.021 17.269 10.021 26.102z"/><path d="m204.674 386.001h15v15h-15z"/><path d="m234.674 253.627h15v15h-15z"/><path d="m204.674 188.752h15v15h-15z"/><path d="m310.467 386.001h15v15h-15z"/><path d="m234.674 321.126h15v15h-15z"/></g></g></svg>